<svg id="visual" viewBox="0 0 900 600" width="900" height="600" xmlns="http://www.w3.org/2000/svg" xmlns:xlink="http://www.w3.org/1999/xlink" version="1.1"><path d="M0 151L13.7 162C27.3 173 54.7 195 82 189C109.3 183 136.7 149 163.8 129C191 109 218 103 245.2 100C272.3 97 299.7 97 327 117C354.3 137 381.7 177 409 197C436.3 217 463.7 217 491 197C518.3 177 545.7 137 573 129C600.3 121 627.7 145 654.8 141C682 137 709 105 736.2 110C763.3 115 790.7 157 818 166C845.3 175 872.7 151 886.3 139L900 127L900 0L886.3 0C872.7 0 845.3 0 818 0C790.7 0 763.3 0 736.2 0C709 0 682 0 654.8 0C627.7 0 600.3 0 573 0C545.7 0 518.3 0 491 0C463.7 0 436.3 0 409 0C381.7 0 354.3 0 327 0C299.7 0 272.3 0 245.2 0C218 0 191 0 163.8 0C136.7 0 109.3 0 82 0C54.7 0 27.3 0 13.7 0L0 0Z" fill="#6198ff"></path><path d="M0 253L13.7 263C27.3 273 54.7 293 82 279C109.3 265 136.7 217 163.8 198C191 179 218 189 245.2 191C272.3 193 299.7 187 327 204C354.3 221 381.7 261 409 283C436.3 305 463.7 309 491 284C518.3 259 545.7 205 573 187C600.3 169 627.7 187 654.8 180C682 173 709 141 736.2 155C763.3 169 790.7 229 818 244C845.3 259 872.7 229 886.3 214L900 199L900 125L886.3 137C872.7 149 845.3 173 818 164C790.7 155 763.3 113 736.2 108C709 103 682 135 654.8 139C627.7 143 600.3 119 573 127C545.7 135 518.3 175 491 195C463.7 215 436.3 215 409 195C381.7 175 354.3 135 327 115C299.7 95 272.3 95 245.2 98C218 101 191 107 163.8 127C136.7 147 109.3 181 82 187C54.7 193 27.3 171 13.7 160L0 149Z" fill="#3c80ff"></path><path d="M0 361L13.7 369C27.3 377 54.7 393 82 377C109.3 361 136.7 313 163.8 304C191 295 218 325 245.2 324C272.3 323 299.7 291 327 291C354.3 291 381.7 323 409 349C436.3 375 463.7 395 491 377C518.3 359 545.7 303 573 282C600.3 261 627.7 275 654.8 278C682 281 709 273 736.2 284C763.3 295 790.7 325 818 330C845.3 335 872.7 315 886.3 305L900 295L900 197L886.3 212C872.7 227 845.3 257 818 242C790.7 227 763.3 167 736.2 153C709 139 682 171 654.8 178C627.7 185 600.3 167 573 185C545.7 203 518.3 257 491 282C463.7 307 436.3 303 409 281C381.7 259 354.3 219 327 202C299.7 185 272.3 191 245.2 189C218 187 191 177 163.8 196C136.7 215 109.3 263 82 277C54.7 291 27.3 271 13.7 261L0 251Z" fill="#0066ff"></path><path d="M0 415L13.7 426C27.3 437 54.7 459 82 441C109.3 423 136.7 365 163.8 355C191 345 218 383 245.2 384C272.3 385 299.7 349 327 345C354.3 341 381.7 369 409 400C436.3 431 463.7 465 491 460C518.3 455 545.7 411 573 389C600.3 367 627.7 367 654.8 368C682 369 709 371 736.2 379C763.3 387 790.7 401 818 405C845.3 409 872.7 403 886.3 400L900 397L900 293L886.3 303C872.7 313 845.3 333 818 328C790.7 323 763.3 293 736.2 282C709 271 682 279 654.8 276C627.7 273 600.3 259 573 280C545.7 301 518.3 357 491 375C463.7 393 436.3 373 409 347C381.7 321 354.3 289 327 289C299.7 289 272.3 321 245.2 322C218 323 191 293 163.8 302C136.7 311 109.3 359 82 375C54.7 391 27.3 375 13.7 367L0 359Z" fill="#0059dd"></path><path d="M0 601L13.7 601C27.3 601 54.7 601 82 601C109.3 601 136.7 601 163.8 601C191 601 218 601 245.2 601C272.3 601 299.7 601 327 601C354.3 601 381.7 601 409 601C436.3 601 463.7 601 491 601C518.3 601 545.7 601 573 601C600.3 601 627.7 601 654.8 601C682 601 709 601 736.2 601C763.3 601 790.7 601 818 601C845.3 601 872.7 601 886.3 601L900 601L900 395L886.3 398C872.7 401 845.3 407 818 403C790.7 399 763.3 385 736.2 377C709 369 682 367 654.8 366C627.7 365 600.3 365 573 387C545.7 409 518.3 453 491 458C463.7 463 436.3 429 409 398C381.7 367 354.3 339 327 343C299.7 347 272.3 383 245.2 382C218 381 191 343 163.8 353C136.7 363 109.3 421 82 439C54.7 457 27.3 435 13.7 424L0 413Z" fill="#004cbb"></path></svg>