<svg id="visual" viewBox="0 0 900 600" width="900" height="600" xmlns="http://www.w3.org/2000/svg" xmlns:xlink="http://www.w3.org/1999/xlink" version="1.1"><path d="M0 139L82 163L164 157L245 91L327 55L409 115L491 61L573 91L655 97L736 109L818 115L900 61L900 0L818 0L736 0L655 0L573 0L491 0L409 0L327 0L245 0L164 0L82 0L0 0Z" fill="#00cc8e"></path><path d="M0 235L82 241L164 235L245 151L327 145L409 175L491 109L573 157L655 205L736 223L818 163L900 133L900 59L818 113L736 107L655 95L573 89L491 59L409 113L327 53L245 89L164 155L82 161L0 137Z" fill="#00b98a"></path><path d="M0 391L82 487L164 373L245 313L327 307L409 313L491 295L573 391L655 343L736 367L818 433L900 367L900 131L818 161L736 221L655 203L573 155L491 107L409 173L327 143L245 149L164 233L82 239L0 233Z" fill="#00a784"></path><path d="M0 499L82 565L164 511L245 511L327 553L409 505L491 547L573 565L655 547L736 517L818 523L900 535L900 365L818 431L736 365L655 341L573 389L491 293L409 311L327 305L245 311L164 371L82 485L0 389Z" fill="#00957c"></path><path d="M0 601L82 601L164 601L245 601L327 601L409 601L491 601L573 601L655 601L736 601L818 601L900 601L900 533L818 521L736 515L655 545L573 563L491 545L409 503L327 551L245 509L164 509L82 563L0 497Z" fill="#038373"></path></svg>