<svg id="visual" viewBox="0 0 900 600" width="900" height="600" xmlns="http://www.w3.org/2000/svg" xmlns:xlink="http://www.w3.org/1999/xlink" version="1.1"><rect width="900" height="600" fill="#CCCCCC"></rect><g><g transform="translate(237 224)"><path d="M0 -100.4L86.9 -50.2L86.9 50.2L0 100.4L-86.9 50.2L-86.9 -50.2Z" fill="none" stroke="#297EA6" stroke-width="2"></path></g><g transform="translate(198 454)"><path d="M0 -62L53.7 -31L53.7 31L0 62L-53.7 31L-53.7 -31Z" fill="none" stroke="#297EA6" stroke-width="2"></path></g><g transform="translate(581 480)"><path d="M0 -78L67.5 -39L67.5 39L0 78L-67.5 39L-67.5 -39Z" fill="none" stroke="#297EA6" stroke-width="2"></path></g><g transform="translate(656 184)"><path d="M0 -54L46.8 -27L46.8 27L0 54L-46.8 27L-46.8 -27Z" fill="none" stroke="#297EA6" stroke-width="2"></path></g><g transform="translate(414 355)"><path d="M0 -97L84 -48.5L84 48.5L0 97L-84 48.5L-84 -48.5Z" fill="none" stroke="#297EA6" stroke-width="2"></path></g><g transform="translate(451 146)"><path d="M0 -79L68.4 -39.5L68.4 39.5L0 79L-68.4 39.5L-68.4 -39.5Z" fill="none" stroke="#297EA6" stroke-width="2"></path></g><g transform="translate(780 403)"><path d="M0 -58L50.2 -29L50.2 29L0 58L-50.2 29L-50.2 -29Z" fill="none" stroke="#297EA6" stroke-width="2"></path></g></g></svg>