<svg id="visual" viewBox="0 0 900 600" width="900" height="600" xmlns="http://www.w3.org/2000/svg" xmlns:xlink="http://www.w3.org/1999/xlink" version="1.1"><rect width="900" height="600" fill="#CCCCCC"></rect><g><g transform="translate(486 201)"><path d="M0 -80.1L69.4 -40.1L69.4 40.1L0 80.1L-69.4 40.1L-69.4 -40.1Z" fill="none" stroke="#297EA6" stroke-width="1"></path></g><g transform="translate(239 455)"><path d="M0 -63L54.6 -31.5L54.6 31.5L0 63L-54.6 31.5L-54.6 -31.5Z" fill="none" stroke="#297EA6" stroke-width="1"></path></g><g transform="translate(150 116)"><path d="M0 -73L63.2 -36.5L63.2 36.5L0 73L-63.2 36.5L-63.2 -36.5Z" fill="none" stroke="#297EA6" stroke-width="1"></path></g><g transform="translate(501 388)"><path d="M0 -63L54.6 -31.5L54.6 31.5L0 63L-54.6 31.5L-54.6 -31.5Z" fill="none" stroke="#297EA6" stroke-width="1"></path></g><g transform="translate(807 273)"><path d="M0 -79L68.4 -39.5L68.4 39.5L0 79L-68.4 39.5L-68.4 -39.5Z" fill="none" stroke="#297EA6" stroke-width="1"></path></g><g transform="translate(336 109)"><path d="M0 -53L45.9 -26.5L45.9 26.5L0 53L-45.9 26.5L-45.9 -26.5Z" fill="none" stroke="#297EA6" stroke-width="1"></path></g><g transform="translate(713 115)"><path d="M0 -53L45.9 -26.5L45.9 26.5L0 53L-45.9 26.5L-45.9 -26.5Z" fill="none" stroke="#297EA6" stroke-width="1"></path></g><g transform="translate(732 494)"><path d="M0 -64L55.4 -32L55.4 32L0 64L-55.4 32L-55.4 -32Z" stroke="#297EA6" fill="none" stroke-width="1"></path></g><g transform="translate(637 282)"><path d="M0 -52L45 -26L45 26L0 52L-45 26L-45 -26Z" stroke="#297EA6" fill="none" stroke-width="1"></path></g><g transform="translate(98 375)"><path d="M0 -63L54.6 -31.5L54.6 31.5L0 63L-54.6 31.5L-54.6 -31.5Z" stroke="#297EA6" fill="none" stroke-width="1"></path></g><g transform="translate(318 305)"><path d="M0 -55L47.6 -27.5L47.6 27.5L0 55L-47.6 27.5L-47.6 -27.5Z" stroke="#297EA6" fill="none" stroke-width="1"></path></g><g transform="translate(390 512)"><path d="M0 -53L45.9 -26.5L45.9 26.5L0 53L-45.9 26.5L-45.9 -26.5Z" stroke="#297EA6" fill="none" stroke-width="1"></path></g></g></svg>