<svg id="visual" viewBox="0 0 900 600" width="900" height="600" xmlns="http://www.w3.org/2000/svg" xmlns:xlink="http://www.w3.org/1999/xlink" version="1.1"><g stroke-width="1" stroke-linejoin="bevel"><path d="M495 312L494 418L564 334Z" fill="#0c2435" stroke="#0c2435"></path><path d="M494 418L607 399L564 334Z" fill="#00101c" stroke="#00101c"></path><path d="M516 460L607 399L494 418Z" fill="#0c2435" stroke="#0c2435"></path><path d="M495 312L411 383L494 418Z" fill="#19435d" stroke="#19435d"></path><path d="M494 418L417 513L516 460Z" fill="#277297" stroke="#277297"></path><path d="M495 312L405 324L411 383Z" fill="#246688" stroke="#246688"></path><path d="M516 460L618 471L607 399Z" fill="#1d4e6b" stroke="#1d4e6b"></path><path d="M294 515L417 513L411 383Z" fill="#081a28" stroke="#081a28"></path><path d="M411 383L417 513L494 418Z" fill="#081a28" stroke="#081a28"></path><path d="M516 460L587 600L618 471Z" fill="#0c2435" stroke="#0c2435"></path><path d="M618 471L693 387L607 399Z" fill="#246688" stroke="#246688"></path><path d="M607 399L691 304L564 334Z" fill="#00101c" stroke="#00101c"></path><path d="M693 387L691 304L607 399Z" fill="#246688" stroke="#246688"></path><path d="M611 200L516 179L495 312Z" fill="#0c2435" stroke="#0c2435"></path><path d="M611 200L495 312L564 334Z" fill="#15384f" stroke="#15384f"></path><path d="M495 312L378 222L405 324Z" fill="#00101c" stroke="#00101c"></path><path d="M691 304L611 200L564 334Z" fill="#00101c" stroke="#00101c"></path><path d="M516 179L378 222L495 312Z" fill="#1d4e6b" stroke="#1d4e6b"></path><path d="M405 324L304 279L411 383Z" fill="#081a28" stroke="#081a28"></path><path d="M691 304L668 207L611 200Z" fill="#00101c" stroke="#00101c"></path><path d="M634 103L495 79L516 179Z" fill="#246688" stroke="#246688"></path><path d="M378 222L304 279L405 324Z" fill="#15384f" stroke="#15384f"></path><path d="M417 513L497 600L516 460Z" fill="#297ea6" stroke="#297ea6"></path><path d="M497 600L587 600L516 460Z" fill="#1d4e6b" stroke="#1d4e6b"></path><path d="M618 471L707 522L693 387Z" fill="#1d4e6b" stroke="#1d4e6b"></path><path d="M587 600L707 522L618 471Z" fill="#1d4e6b" stroke="#1d4e6b"></path><path d="M693 387L799 317L691 304Z" fill="#246688" stroke="#246688"></path><path d="M304 279L261 428L411 383Z" fill="#19435d" stroke="#19435d"></path><path d="M417 513L385 600L497 600Z" fill="#246688" stroke="#246688"></path><path d="M261 428L294 515L411 383Z" fill="#00101c" stroke="#00101c"></path><path d="M294 515L385 600L417 513Z" fill="#19435d" stroke="#19435d"></path><path d="M634 103L516 179L611 200Z" fill="#277297" stroke="#277297"></path><path d="M516 179L382 72L378 222Z" fill="#15384f" stroke="#15384f"></path><path d="M378 222L262 220L304 279Z" fill="#00101c" stroke="#00101c"></path><path d="M797 439L799 317L693 387Z" fill="#0c2435" stroke="#0c2435"></path><path d="M691 304L838 239L668 207Z" fill="#297ea6" stroke="#297ea6"></path><path d="M668 207L634 103L611 200Z" fill="#205a7a" stroke="#205a7a"></path><path d="M725 118L634 103L668 207Z" fill="#112e42" stroke="#112e42"></path><path d="M707 522L797 439L693 387Z" fill="#0c2435" stroke="#0c2435"></path><path d="M267 93L262 220L378 222Z" fill="#297ea6" stroke="#297ea6"></path><path d="M304 279L190 381L261 428Z" fill="#0c2435" stroke="#0c2435"></path><path d="M716 600L765 532L707 522Z" fill="#00101c" stroke="#00101c"></path><path d="M707 522L765 532L797 439Z" fill="#1d4e6b" stroke="#1d4e6b"></path><path d="M587 600L716 600L707 522Z" fill="#246688" stroke="#246688"></path><path d="M294 515L298 600L385 600Z" fill="#205a7a" stroke="#205a7a"></path><path d="M182 600L298 600L294 515Z" fill="#081a28" stroke="#081a28"></path><path d="M495 79L382 72L516 179Z" fill="#277297" stroke="#277297"></path><path d="M808 136L725 118L668 207Z" fill="#0c2435" stroke="#0c2435"></path><path d="M597 0L467 0L495 79Z" fill="#00101c" stroke="#00101c"></path><path d="M178 271L190 381L304 279Z" fill="#0c2435" stroke="#0c2435"></path><path d="M261 428L160 537L294 515Z" fill="#205a7a" stroke="#205a7a"></path><path d="M799 317L838 239L691 304Z" fill="#277297" stroke="#277297"></path><path d="M900 267L838 239L799 317Z" fill="#205a7a" stroke="#205a7a"></path><path d="M199 204L178 271L262 220Z" fill="#15384f" stroke="#15384f"></path><path d="M262 220L178 271L304 279Z" fill="#19435d" stroke="#19435d"></path><path d="M267 93L199 204L262 220Z" fill="#246688" stroke="#246688"></path><path d="M495 79L467 0L382 72Z" fill="#081a28" stroke="#081a28"></path><path d="M382 72L267 93L378 222Z" fill="#112e42" stroke="#112e42"></path><path d="M597 0L495 79L634 103Z" fill="#00101c" stroke="#00101c"></path><path d="M330 0L267 93L382 72Z" fill="#15384f" stroke="#15384f"></path><path d="M838 239L808 136L668 207Z" fill="#297ea6" stroke="#297ea6"></path><path d="M727 0L597 0L634 103Z" fill="#00101c" stroke="#00101c"></path><path d="M716 600L805 600L765 532Z" fill="#297ea6" stroke="#297ea6"></path><path d="M765 532L900 472L797 439Z" fill="#205a7a" stroke="#205a7a"></path><path d="M797 439L900 412L799 317Z" fill="#246688" stroke="#246688"></path><path d="M727 0L634 103L725 118Z" fill="#1d4e6b" stroke="#1d4e6b"></path><path d="M900 472L900 412L797 439Z" fill="#1d4e6b" stroke="#1d4e6b"></path><path d="M838 239L900 193L808 136Z" fill="#297ea6" stroke="#297ea6"></path><path d="M467 0L382 0L382 72Z" fill="#0c2435" stroke="#0c2435"></path><path d="M69 484L160 537L190 381Z" fill="#246688" stroke="#246688"></path><path d="M190 381L160 537L261 428Z" fill="#19435d" stroke="#19435d"></path><path d="M900 412L900 267L799 317Z" fill="#205a7a" stroke="#205a7a"></path><path d="M805 600L900 472L765 532Z" fill="#297ea6" stroke="#297ea6"></path><path d="M160 537L182 600L294 515Z" fill="#277297" stroke="#277297"></path><path d="M382 0L330 0L382 72Z" fill="#297ea6" stroke="#297ea6"></path><path d="M900 267L900 193L838 239Z" fill="#297ea6" stroke="#297ea6"></path><path d="M775 0L727 0L725 118Z" fill="#1d4e6b" stroke="#1d4e6b"></path><path d="M775 0L725 118L808 136Z" fill="#0c2435" stroke="#0c2435"></path><path d="M116 185L95 334L178 271Z" fill="#112e42" stroke="#112e42"></path><path d="M178 271L95 334L190 381Z" fill="#00101c" stroke="#00101c"></path><path d="M116 185L178 271L199 204Z" fill="#0c2435" stroke="#0c2435"></path><path d="M189 93L199 204L267 93Z" fill="#081a28" stroke="#081a28"></path><path d="M95 334L91 365L190 381Z" fill="#081a28" stroke="#081a28"></path><path d="M160 537L119 600L182 600Z" fill="#277297" stroke="#277297"></path><path d="M171 0L189 93L267 93Z" fill="#19435d" stroke="#19435d"></path><path d="M189 93L116 185L199 204Z" fill="#246688" stroke="#246688"></path><path d="M900 105L775 0L808 136Z" fill="#00101c" stroke="#00101c"></path><path d="M805 600L900 600L900 472Z" fill="#277297" stroke="#277297"></path><path d="M69 484L119 600L160 537Z" fill="#0c2435" stroke="#0c2435"></path><path d="M91 365L69 484L190 381Z" fill="#00101c" stroke="#00101c"></path><path d="M0 411L69 484L91 365Z" fill="#15384f" stroke="#15384f"></path><path d="M0 411L91 365L0 304Z" fill="#1d4e6b" stroke="#1d4e6b"></path><path d="M900 193L900 105L808 136Z" fill="#081a28" stroke="#081a28"></path><path d="M189 93L109 127L116 185Z" fill="#0c2435" stroke="#0c2435"></path><path d="M0 304L91 365L95 334Z" fill="#112e42" stroke="#112e42"></path><path d="M120 0L109 127L189 93Z" fill="#19435d" stroke="#19435d"></path><path d="M330 0L171 0L267 93Z" fill="#19435d" stroke="#19435d"></path><path d="M0 304L95 334L116 185Z" fill="#19435d" stroke="#19435d"></path><path d="M69 484L0 600L119 600Z" fill="#00101c" stroke="#00101c"></path><path d="M0 197L116 185L109 127Z" fill="#00101c" stroke="#00101c"></path><path d="M0 197L0 304L116 185Z" fill="#1d4e6b" stroke="#1d4e6b"></path><path d="M900 105L900 0L775 0Z" fill="#246688" stroke="#246688"></path><path d="M0 411L0 509L69 484Z" fill="#00101c" stroke="#00101c"></path><path d="M171 0L120 0L189 93Z" fill="#246688" stroke="#246688"></path><path d="M0 84L0 197L109 127Z" fill="#205a7a" stroke="#205a7a"></path><path d="M0 509L0 600L69 484Z" fill="#081a28" stroke="#081a28"></path><path d="M120 0L0 84L109 127Z" fill="#246688" stroke="#246688"></path><path d="M120 0L0 0L0 84Z" fill="#00101c" stroke="#00101c"></path></g></svg>